<svg width="200" height="200" viewBox="0 0 200 200" fill="none" xmlns="http://www.w3.org/2000/svg">
<path d="M39.5684 65.3023L39.7264 65.0303C40.4314 63.7433 41.6484 62.8673 43.0484 62.4033L96.6644 35.1433C97.7274 34.4133 99.0384 33.9733 100.479 34.0013C101.92 33.9733 103.231 34.4123 104.295 35.1433L157.862 62.3873C159.371 62.8753 160.672 63.8383 161.359 65.2763C161.861 66.2063 162.012 67.2103 161.877 68.1873L161.846 131.261C162.145 132.666 161.864 134.158 160.797 135.418C160.106 136.328 159.13 136.98 158.029 137.372L104.496 164.564C103.396 165.371 102.01 165.862 100.478 165.824V95.6103L39.5684 65.3023Z" fill="#8C63CF"/>
<path d="M39.5689 65.3022L100.481 95.6112V165.825C98.9499 165.863 97.5619 165.372 96.4629 164.565L42.9309 137.373C41.8299 136.981 40.8519 136.329 40.1619 135.417C39.0939 134.157 38.8129 132.665 39.1129 131.262L39.0809 68.3003C38.9229 67.2973 39.0589 66.2602 39.5689 65.3022Z" fill="url(#paint0_linear_2866_463)"/>
<path d="M100.481 95.6112V165.825C102.012 165.863 103.399 165.372 104.499 164.565L158.032 137.373C159.133 136.981 160.11 136.329 160.8 135.417C161.869 134.157 162.148 132.665 161.849 131.262L161.882 68.3012C162.041 67.2982 161.904 66.2612 161.394 65.3032L100.481 95.6112Z" fill="url(#paint1_linear_2866_463)"/>
<path d="M100.482 117.225V165.825C98.9508 165.863 97.5628 165.372 96.4638 164.565L42.9318 137.373C41.8308 136.981 40.8528 136.329 40.1628 135.417C39.0948 134.157 38.8138 132.665 39.1138 131.262L39.1088 121.538C56.9678 118.801 77.9848 117.225 100.482 117.225Z" fill="url(#paint2_linear_2866_463)"/>
<path d="M60.8937 109.481L67.6157 107.205L75.0077 116.581V82.9694L60.8857 75.9434L60.8937 109.481Z" fill="#FFC338"/>
<path d="M144.759 48.2212L75.0077 82.9692L60.8857 75.9432L130.821 41.1062L123.373 37.5682L157.329 34.6372L152.697 52.3072L144.759 48.2212Z" fill="#FF9238"/>
<path d="M100.481 117.225V165.825C102.012 165.863 103.399 165.372 104.499 164.565L158.032 137.373C159.133 136.981 160.11 136.329 160.8 135.417C161.869 134.157 162.148 132.665 161.849 131.262L161.853 121.538C143.994 118.801 122.976 117.225 100.481 117.225Z" fill="url(#paint3_linear_2866_463)"/>
<path d="M137.799 136.428L109.692 150.412V144.616L137.799 130.631V136.428ZM137.799 124.079L109.692 138.065V132.268L137.799 118.284V124.079Z" fill="#FFC338"/>
<path d="M161.961 92.4352L100.481 123.44V112.082L161.961 81.0771V92.4352Z" fill="#383394"/>
<defs>
<linearGradient id="paint0_linear_2866_463" x1="36.953" y1="104.477" x2="102.308" y2="126.813" gradientUnits="userSpaceOnUse">
<stop stop-color="#31439C"/>
<stop offset="0.8" stop-color="#80CFE3"/>
<stop offset="1" stop-color="#80CFE3"/>
</linearGradient>
<linearGradient id="paint1_linear_2866_463" x1="100.262" y1="115.031" x2="162.358" y2="116.103" gradientUnits="userSpaceOnUse">
<stop stop-color="#5250D1"/>
<stop offset="1" stop-color="#3647D3"/>
</linearGradient>
<linearGradient id="paint2_linear_2866_463" x1="38.7524" y1="137.357" x2="100.831" y2="141.566" gradientUnits="userSpaceOnUse">
<stop stop-color="#1B2BBB"/>
<stop offset="0.9677" stop-color="#068FDE"/>
<stop offset="1" stop-color="#00ACDC"/>
</linearGradient>
<linearGradient id="paint3_linear_2866_463" x1="99.1063" y1="132.8" x2="162.191" y2="154.205" gradientUnits="userSpaceOnUse">
<stop stop-color="#1B2BBB"/>
<stop offset="1" stop-color="#068FDE"/>
</linearGradient>
</defs>
</svg>
